# xmcd
#
# Track frame offsets:
# 150
# 14438
# 37096
# 62484
#
# Disc length: 1130 seconds
#
# Revision: 0
# Processed by: cddbd v1.5.1PL0 Copyright (c) Steve Scherf et al.
# Submitted via: Audion 3.0.2 (http://www.panic.com/audion/)
#
DISCID=2d046804
DTITLE=The Making of Spring EP - Jon Hassell
DYEAR=1900
DGENRE=
TTITLE0=Introduction
TTITLE1=Can of Rain
TTITLE2=One Day
TTITLE3=Allston
EXTD=
EXTT0=
EXTT1=
EXTT2=
EXTT3=
PLAYORDER=
